<svg xmlns="http://www.w3.org/2000/svg" display="none">

    <symbol
            id='action'
            xmlns="http://www.w3.org/2000/svg"
            viewBox="0 0 24 24"
            fill="inherit"
            stroke="inherit"
    >
        <path d="M21 3v5l-11 9l-4 4l-3 -3l4 -4l9 -11z"/>
        <path d="M5 13l6 6"/>
        <path d="M14.32 17.32l3.68 3.68l3 -3l-3.365 -3.365"/>
        <path d="M10 5.5l-2 -2.5h-5v5l3 2.5"/>
    </symbol>

    <symbol
            id='horror'
            xmlns="http://www.w3.org/2000/svg"
            viewBox="0 0 24 24"
            fill="inherit"
            stroke="inherit"
    >
        <path d="M7 16.17v-9.17a3 3 0 0 1 3 -3h4a3 3 0 0 1 3 3v9.171"/>
        <path d="M12 7v5"/>
        <path d="M10 9h4"/>
        <path d="M5 21v-2a3 3 0 0 1 3 -3h8a3 3 0 0 1 3 3v2h-14z"/>
    </symbol>


    <symbol
            id='western'
            xmlns="http://www.w3.org/2000/svg"
            viewBox="0 0 24 24"
            fill="inherit"
            stroke="inherit"
    >
        <path
                d="M7 10l-.85 8.507a1.357 1.357 0 0 0 1.35 1.493h.146a2 2 0 0 0 1.857 -1.257l.994 -2.486a2 2 0 0 1 1.857 -1.257h1.292a2 2 0 0 1 1.857 1.257l.994 2.486a2 2 0 0 0 1.857 1.257h.146a1.37 1.37 0 0 0 1.364 -1.494l-.864 -9.506h-8c0 -3 -3 -5 -6 -5l-3 6l2 2l3 -2z"/>
        <path d="M22 14v-2a3 3 0 0 0 -3 -3"/>
    </symbol>


    <symbol
            id='adventure'
            xmlns="http://www.w3.org/2000/svg"
            viewBox="0 0 24 24"
            fill="inherit"
            stroke="inherit"

    >
        <path d="M12 18.5l-3 -1.5l-6 3v-13l6 -3l6 3l6 -3v7.5"/>
        <path d="M9 4v13"/>
        <path d="M15 7v5.5"/>
        <path
                d="M21.121 20.121a3 3 0 1 0 -4.242 0c.418 .419 1.125 1.045 2.121 1.879c1.051 -.89 1.759 -1.516 2.121 -1.879z"/>
        <path d="M19 18v.01"/>
    </symbol>


    <symbol
            id='animation'
            xmlns="http://www.w3.org/2000/svg"
            viewBox="0 0 24 24"
            fill="inherit"
            stroke="inherit"
    >
        <path d="M4 20h4l10.5 -10.5a2.828 2.828 0 1 0 -4 -4l-10.5 10.5v4"/>
        <path d="M13.5 6.5l4 4"/>
    </symbol>

    <symbol
            id='comedy'
            xmlns="http://www.w3.org/2000/svg"
            viewBox="0 0 24 24"
            fill="inherit"
            stroke="inherit"
    >
        <path
                d="M13.192 9h6.616a2 2 0 0 1 1.992 2.183l-.567 6.182a4 4 0 0 1 -3.983 3.635h-1.5a4 4 0 0 1 -3.983 -3.635l-.567 -6.182a2 2 0 0 1 1.992 -2.183z"/>
        <path d="M15 13h.01"/>
        <path d="M18 13h.01"/>
        <path d="M15 16.5c1 .667 2 .667 3 0"/>
        <path
                d="M8.632 15.982a4.037 4.037 0 0 1 -.382 .018h-1.5a4 4 0 0 1 -3.983 -3.635l-.567 -6.182a2 2 0 0 1 1.992 -2.183h6.616a2 2 0 0 1 2 2"/>
        <path d="M6 8h.01"/>
        <path d="M9 8h.01"/>
        <path d="M6 12c.764 -.51 1.528 -.63 2.291 -.36"/>
    </symbol>


    <symbol
            id='crime'
            xmlns="http://www.w3.org/2000/svg"
            viewBox="0 0 24 24"
            fill="inherit"
            stroke="inherit"
    >
        <path d="M18 4v16"/>
        <path d="M14 4v16"/>
        <path d="M6 4v5"/>
        <path d="M6 15v5"/>
        <path d="M10 4v5"/>
        <path d="M11 9h-6v6h6z"/>
        <path d="M10 15v5"/>
        <path d="M8 12h-.01"/>
    </symbol>


    <symbol
            id='documentary'
            xmlns="http://www.w3.org/2000/svg"


            viewBox="0 0 24 24"
            fill="inherit"
            stroke="inherit"
    >
        <path d="M5 4m0 1a1 1 0 0 1 1 -1h2a1 1 0 0 1 1 1v14a1 1 0 0 1 -1 1h-2a1 1 0 0 1 -1 -1z"/>
        <path d="M9 4m0 1a1 1 0 0 1 1 -1h2a1 1 0 0 1 1 1v14a1 1 0 0 1 -1 1h-2a1 1 0 0 1 -1 -1z"/>
        <path d="M5 8h4"/>
        <path d="M9 16h4"/>
        <path
                d="M13.803 4.56l2.184 -.53c.562 -.135 1.133 .19 1.282 .732l3.695 13.418a1.02 1.02 0 0 1 -.634 1.219l-.133 .041l-2.184 .53c-.562 .135 -1.133 -.19 -1.282 -.732l-3.695 -13.418a1.02 1.02 0 0 1 .634 -1.219l.133 -.041z"/>
        <path d="M14 9l4 -1"/>
        <path d="M16 16l3.923 -.98"/>
    </symbol>

    <symbol
            id='drama'
            xmlns="http://www.w3.org/2000/svg"
            viewBox="0 0 24 24"
            fill="inherit"
            stroke="inherit"
    >
        <path d="M19.5 12.572l-7.5 7.428l-7.5 -7.428a5 5 0 1 1 7.5 -6.566a5 5 0 1 1 7.5 6.572"/>
        <path d="M12 6l-2 4l4 3l-2 4v3"/>
    </symbol>

    <symbol
            id='family'
            xmlns="http://www.w3.org/2000/svg"
            viewBox="0 0 24 24"
            fill="inherit"
            stroke="inherit"
    >
        <path d="M7 5m-2 0a2 2 0 1 0 4 0a2 2 0 1 0 -4 0"/>
        <path d="M5 22v-5l-1 -1v-4a1 1 0 0 1 1 -1h4a1 1 0 0 1 1 1v4l-1 1v5"/>
        <path d="M17 5m-2 0a2 2 0 1 0 4 0a2 2 0 1 0 -4 0"/>
        <path d="M15 22v-4h-2l2 -6a1 1 0 0 1 1 -1h2a1 1 0 0 1 1 1l2 6h-2v4"/>
    </symbol>

    <symbol
            id='fantasy'
            xmlns="http://www.w3.org/2000/svg"
            viewBox="0 0 24 24"
            fill="inherit"
            stroke="inherit"
    >
        <path d="M6 21l15 -15l-3 -3l-15 15l3 3"/>
        <path d="M15 6l3 3"/>
        <path d="M9 3a2 2 0 0 0 2 2a2 2 0 0 0 -2 2a2 2 0 0 0 -2 -2a2 2 0 0 0 2 -2"/>
        <path d="M19 13a2 2 0 0 0 2 2a2 2 0 0 0 -2 2a2 2 0 0 0 -2 -2a2 2 0 0 0 2 -2"/>
    </symbol>

    <symbol
            id='history'
            xmlns="http://www.w3.org/2000/svg"
            viewBox="0 0 24 24"
            fill="inherit"
            stroke="inherit"
    >
        <path d="M3 21l18 0"/>
        <path d="M4 21v-15a2 2 0 0 1 2 -2h12a2 2 0 0 1 2 2v15"/>
        <path d="M9 21v-8a3 3 0 0 1 6 0v8"/>
    </symbol>


    <symbol
            id='music'
            xmlns="http://www.w3.org/2000/svg"
            viewBox="0 0 24 24"
            fill="inherit"
            stroke="inherit"
    >
        <path d="M3 17a3 3 0 1 0 6 0a3 3 0 0 0 -6 0"/>
        <path d="M13 17a3 3 0 1 0 6 0a3 3 0 0 0 -6 0"/>
        <path d="M9 17v-13h10v13"/>
        <path d="M9 8h10"/>
    </symbol>


    <symbol
            id='mystery'
            xmlns="http://www.w3.org/2000/svg"
            viewBox="0 0 24 24"
            fill="inherit"
            stroke="inherit"
    >
        <path
                d="M16.555 3.843l3.602 3.602a2.877 2.877 0 0 1 0 4.069l-2.643 2.643a2.877 2.877 0 0 1 -4.069 0l-.301 -.301l-6.558 6.558a2 2 0 0 1 -1.239 .578l-.175 .008h-1.172a1 1 0 0 1 -.993 -.883l-.007 -.117v-1.172a2 2 0 0 1 .467 -1.284l.119 -.13l.414 -.414h2v-2h2v-2l2.144 -2.144l-.301 -.301a2.877 2.877 0 0 1 0 -4.069l2.643 -2.643a2.877 2.877 0 0 1 4.069 0z"/>
        <path d="M15 9h.01"/>
    </symbol>


    <symbol
            id='romance'
            xmlns="http://www.w3.org/2000/svg"
            viewBox="0 0 24 24"
            fill="inherit"
            stroke="inherit"
    >
        <path d="M14.017 18l-2.017 2l-7.5 -7.428a5 5 0 1 1 7.5 -6.566a5 5 0 0 1 8.153 5.784"/>
        <path
                d="M15.99 20l4.197 -4.223a2.81 2.81 0 0 0 0 -3.948a2.747 2.747 0 0 0 -3.91 -.007l-.28 .282l-.279 -.283a2.747 2.747 0 0 0 -3.91 -.007a2.81 2.81 0 0 0 -.007 3.948l4.182 4.238z"/>
    </symbol>


    <symbol
            id='science-fiction'
            xmlns="http://www.w3.org/2000/svg"
            viewBox="0 0 24 24"
            fill="inherit"
            stroke="inherit"

    >
        <path
                d="M16.95 9.01c3.02 .739 5.05 2.123 5.05 3.714c0 2.367 -4.48 4.276 -10 4.276s-10 -1.909 -10 -4.276c0 -1.59 2.04 -2.985 5.07 -3.724"/>
        <path
                d="M7 9c0 1.105 2.239 2 5 2s5 -.895 5 -2v-.035c0 -2.742 -2.239 -4.965 -5 -4.965s-5 2.223 -5 4.965v.035"/>
        <path d="M15 17l2 3"/>
        <path d="M8.5 17l-1.5 3"/>
        <path d="M12 14h.01"/>
        <path d="M7 13h.01"/>
        <path d="M17 13h.01"/>
    </symbol>


    <symbol
            id='thriller'
            xmlns="http://www.w3.org/2000/svg"
            viewBox="0 0 24 24"
            fill="inherit"
            stroke="inherit"
    >
        <path d="M3 19l15 -15l3 3l-6 6l2 2a14 14 0 0 1 -14 4"/>
    </symbol>


    <symbol
            id='tv-movie'
            xmlns="http://www.w3.org/2000/svg"
            viewBox="0 0 24 24"
            fill="inherit"
            stroke="inherit"
    >
        <path d="M3 7m0 2a2 2 0 0 1 2 -2h14a2 2 0 0 1 2 2v9a2 2 0 0 1 -2 2h-14a2 2 0 0 1 -2 -2z"/>
        <path d="M16 3l-4 4l-4 -4"/>
        <path d="M15 7v13"/>
        <path d="M18 15v.01"/>
        <path d="M18 12v.01"/>
    </symbol>

    <symbol
            id='war'
            xmlns="http://www.w3.org/2000/svg"
            viewBox="0 0 24 24"
            fill="inherit"
            stroke="inherit"
    >
        <path d="M2 12m0 3a3 3 0 0 1 3 -3h12a3 3 0 0 1 3 3v0a3 3 0 0 1 -3 3h-12a3 3 0 0 1 -3 -3z"/>
        <path d="M6 12l1 -5h5l3 5"/>
        <path d="M21 9l-7.8 0"/>
    </symbol>

    <symbol
            id='movies'
            xmlns="http://www.w3.org/2000/svg"
            viewBox="0 0 24 24"
            fill="inherit"
            stroke="inherit"
    >
        <path d="M4 4m0 2a2 2 0 0 1 2 -2h12a2 2 0 0 1 2 2v12a2 2 0 0 1 -2 2h-12a2 2 0 0 1 -2 -2z"/>
        <path d="M8 4l0 16"/>
        <path d="M16 4l0 16"/>
        <path d="M4 8l4 0"/>
        <path d="M4 16l4 0"/>
        <path d="M4 12l16 0"/>
        <path d="M16 8l4 0"/>
        <path d="M16 16l4 0"/>
    </symbol>
</svg>
